<svg width="30" height="30" viewBox="0 0 30 30" fill="none" xmlns="http://www.w3.org/2000/svg">
<rect width="30" height="30" rx="15" fill="black"/>
<path d="M15.6462 15.0002L19.8872 9.81667C20.0622 9.60317 20.0302 9.28817 19.8162 9.11317C19.6022 8.93917 19.2877 8.96967 19.1127 9.18417L15.0002 14.2107L10.8872 9.18367C10.7117 8.96917 10.3972 8.93867 10.1837 9.11267C9.96972 9.28817 9.93822 9.60267 10.1127 9.81617L14.3542 15.0002L10.1132 20.1837C9.93822 20.3972 9.97022 20.7122 10.1842 20.8872C10.3967 21.0612 10.7122 21.0312 10.8877 20.8162L15.0002 15.7897L19.1132 20.8162C19.2887 21.0312 19.6042 21.0607 19.8167 20.8872C20.0307 20.7117 20.0622 20.3972 19.8877 20.1837L15.6462 15.0002Z" fill="white"/>
</svg>
