<svg width="30" height="30" viewBox="0 0 30 30" fill="none" xmlns="http://www.w3.org/2000/svg">
<rect width="30" height="30" rx="15" fill="black"/>
<path d="M22.9682 10.2395L12.5241 20.6836C12.4635 20.7443 12.3915 20.7924 12.3122 20.8253C12.233 20.8581 12.148 20.875 12.0623 20.875C11.9765 20.875 11.8915 20.8581 11.8123 20.8253C11.7331 20.7924 11.6611 20.7443 11.6004 20.6836L7.03114 16.1143C6.90865 15.9918 6.83984 15.8257 6.83984 15.6524C6.83984 15.4792 6.90865 15.3131 7.03114 15.1906C7.15362 15.0681 7.31975 14.9993 7.49296 14.9993C7.66618 14.9993 7.83231 15.0681 7.95479 15.1906L12.0623 19.2989L22.0446 9.31581C22.167 9.19332 22.3332 9.12451 22.5064 9.12451C22.6796 9.12451 22.8457 9.19332 22.9682 9.31581C23.0907 9.43829 23.1595 9.60441 23.1595 9.77763C23.1595 9.95085 23.0907 10.117 22.9682 10.2395Z" fill="white"/>
</svg>
