<svg width="24" height="21" viewBox="0 0 24 21" fill="none" xmlns="http://www.w3.org/2000/svg">
<path d="M13.9407 8.1876L9.08561 12.5624C8.46193 12.0004 8.07812 11.2309 8.07812 10.375C8.07812 8.66312 9.61333 7.27979 11.5132 7.27979C12.4631 7.27979 13.317 7.62562 13.9407 8.1876Z" stroke="black" stroke-width="1.5" stroke-linecap="round" stroke-linejoin="round"/>
<path d="M17.0981 4.98885C15.4189 3.8476 13.4999 3.2251 11.5138 3.2251C8.1267 3.2251 4.96993 5.02343 2.77267 8.13593C1.90911 9.35499 1.90911 11.4041 2.77267 12.6231C3.53067 13.6952 4.41342 14.6203 5.37292 15.3638" stroke="black" stroke-width="1.5" stroke-linecap="round" stroke-linejoin="round"/>
<path d="M8.07812 16.8851C9.17196 17.3001 10.333 17.5249 11.5132 17.5249C14.9002 17.5249 18.057 15.7266 20.2542 12.6141C21.1178 11.395 21.1178 9.34596 20.2542 8.12689C19.9376 7.67731 19.5922 7.25367 19.2372 6.85596" stroke="black" stroke-width="1.5" stroke-linecap="round" stroke-linejoin="round"/>
<path d="M14.8816 10.98C14.6321 12.199 13.5287 13.1933 12.1758 13.4181" stroke="black" stroke-width="1.5" stroke-linecap="round" stroke-linejoin="round"/>
<path d="M9.08547 12.5625L1.91797 19.0209" stroke="black" stroke-width="1.5" stroke-linecap="round" stroke-linejoin="round"/>
<path d="M21.1089 1.729L13.9414 8.18744" stroke="black" stroke-width="1.5" stroke-linecap="round" stroke-linejoin="round"/>
</svg>
