<svg width="164" height="161" viewBox="0 0 164 161" fill="none" xmlns="http://www.w3.org/2000/svg">
<path d="M82.5372 160.5C126.719 160.5 162.535 124.683 162.535 80.5C162.535 36.3172 126.719 0.5 82.5372 0.5C38.3555 0.5 2.53906 36.3172 2.53906 80.5C2.53906 124.683 38.3555 160.5 82.5372 160.5Z" fill="#F1F3FA" stroke="#D5DAE5" stroke-miterlimit="10"/>
<path d="M162.365 80.1588C162.365 103.938 153.023 125.169 136.548 139.777H3.55726C1.85878 139.777 0.5 138.418 0.5 136.719V26.3159C0.5 24.6174 1.85878 23.2585 3.55726 23.2585H138.076C153.023 37.3562 162.365 57.7384 162.365 80.1588Z" fill="#F1F3FA" stroke="#D5DAE5" stroke-miterlimit="10"/>
<path d="M136.379 139.608H136.039C138.247 137.57 139.946 135.531 141.814 133.323C139.946 135.701 138.587 137.739 136.379 139.608Z" fill="#F1F3FA"/>
<path d="M58.4195 91.7089H5.42707C4.57783 91.7089 3.89844 91.0295 3.89844 90.1803V51.9637C3.89844 51.1145 4.57783 50.4351 5.42707 50.4351H58.4195C59.2687 50.4351 59.9481 51.1145 59.9481 51.9637V90.0104C59.9481 90.8597 59.2687 91.7089 58.4195 91.7089Z" fill="white"/>
<path d="M155.233 47.3768H5.42707C4.57783 47.3768 3.89844 46.6974 3.89844 45.8481V27.8438C3.89844 26.9946 4.57783 26.3152 5.42707 26.3152H141.305C143.343 28.5233 145.212 30.9012 147.08 33.2791C148.948 35.8269 150.817 38.7143 152.345 41.432C153.364 43.4702 154.383 45.3385 155.233 47.3768Z" fill="white"/>
<path d="M152.343 41.605H128.904C128.394 41.605 128.055 41.2653 128.055 40.7558V34.3014C128.055 33.7919 128.394 33.4521 128.904 33.4521H146.908C148.946 35.9999 150.644 38.7175 152.343 41.605Z" fill="#AAB2C5"/>
<path d="M148.273 38.2073H134.005C133.496 38.2073 133.156 37.8676 133.156 37.358C133.156 36.8485 133.496 36.5088 134.005 36.5088H148.273C148.782 36.5088 149.122 36.8485 149.122 37.358C149.122 37.8676 148.782 38.2073 148.273 38.2073Z" fill="white"/>
<path d="M117.185 91.7089H64.1927C63.3435 91.7089 62.6641 91.0295 62.6641 90.1803V51.9637C62.6641 51.1145 63.3435 50.4351 64.1927 50.4351H117.185C118.034 50.4351 118.714 51.1145 118.714 51.9637V90.0104C118.884 90.8597 118.204 91.7089 117.185 91.7089Z" fill="white"/>
<path d="M161.346 67.7599C160.327 61.6452 158.798 55.8703 156.59 50.4351H123.13C122.281 50.4351 121.602 51.1145 121.602 52.1336V90.1803C121.602 91.0295 122.281 91.7089 123.13 91.7089H161.516C162.025 87.9722 162.365 84.0656 162.365 80.3289C162.365 76.9319 162.195 73.5348 161.686 70.1378L161.346 67.7599Z" fill="white"/>
<path d="M58.4195 135.873H5.42707C4.57783 135.873 3.89844 135.194 3.89844 134.345V96.298C3.89844 95.4487 4.57783 94.7693 5.42707 94.7693H58.4195C59.2687 94.7693 59.9481 95.4487 59.9481 96.298V134.345C59.9481 135.194 59.2687 135.873 58.4195 135.873Z" fill="white"/>
<path d="M117.185 135.873H64.1927C63.3435 135.873 62.6641 135.194 62.6641 134.345V96.298C62.6641 95.4487 63.3435 94.7693 64.1927 94.7693H117.185C118.034 94.7693 118.714 95.4487 118.714 96.298V134.345C118.884 135.194 118.204 135.873 117.185 135.873Z" fill="white"/>
<path d="M161.01 94.7693C160.67 96.8075 160.161 98.6759 159.651 100.544C159.481 101.224 159.311 101.733 159.142 102.413C158.632 104.281 157.953 106.149 157.273 108.018C156.764 109.377 156.084 110.905 155.575 112.264C155.065 113.283 154.556 114.302 154.046 115.321C153.876 115.831 153.537 116.34 153.197 116.85C152.178 118.718 151.159 120.587 149.97 122.455C149.63 122.965 149.29 123.644 148.781 124.154C147.592 125.852 146.403 127.551 145.214 129.249C144.705 129.929 144.195 130.438 143.686 131.117C142.327 132.816 140.798 134.515 139.269 136.043H122.794C121.945 136.043 121.266 135.364 121.266 134.515V96.298C121.266 95.4487 121.945 94.7693 122.794 94.7693H161.01Z" fill="white"/>
<path d="M38.7113 117.361C38.7113 117.531 38.7113 117.701 38.5414 117.87C38.3716 118.21 38.3716 118.55 38.3716 118.89C38.2017 119.059 38.2017 119.229 38.2017 119.399C38.0319 119.739 38.0319 120.079 37.862 120.248V120.418C37.6922 120.588 37.6922 120.758 37.6922 120.758C37.5223 120.928 37.5223 121.098 37.3525 121.098L40.4097 123.815C40.5796 123.645 40.5796 123.476 40.7494 123.306C41.0891 122.796 41.4288 122.287 41.5987 121.777C41.7685 121.607 41.7685 121.437 41.7685 121.268C41.9384 120.758 42.1082 120.248 42.4479 119.739C42.4479 119.569 42.6177 119.399 42.6177 119.399C42.7876 119.059 42.7876 118.72 42.7876 118.55C42.7876 118.38 42.9574 118.21 42.9574 118.21C42.9574 118.04 42.9574 117.87 43.1273 117.87V117.701C43.1273 117.531 43.1273 117.361 43.1273 117.361H38.7113ZM30.049 125.004C25.2933 125.004 21.217 121.098 21.217 116.342C21.217 111.756 24.6139 108.189 28.8601 107.679V103.603C22.4059 104.113 17.1406 109.718 17.1406 116.512C17.1406 123.645 22.9154 129.42 30.049 129.42C33.6158 129.42 36.8429 128.062 39.051 125.684L35.9937 122.796C34.4651 124.325 32.2571 125.004 30.049 125.004ZM31.0681 103.433V107.51C35.1445 108.019 38.2017 111.076 38.7113 114.983H42.9574C42.4479 108.868 37.3525 103.943 31.0681 103.433Z" fill="#F1F3FA"/>
<path d="M42.9617 115.152H38.8853C38.3758 111.076 35.1487 108.018 31.2422 107.678V103.602C37.3567 103.942 42.4521 108.867 42.9617 115.152Z" fill="#AAB2C5"/>
<path d="M42.9643 117.36C42.9643 117.529 42.9643 117.699 42.9643 117.699V117.869C42.9643 118.039 42.9643 118.209 42.7945 118.209C42.7945 118.379 42.7945 118.549 42.6246 118.549C42.4548 118.888 42.4548 119.228 42.4548 119.398C42.4548 119.568 42.285 119.738 42.285 119.738C42.1151 120.247 41.9453 120.757 41.6056 121.266C41.4357 121.436 41.4357 121.606 41.4357 121.776C41.2659 122.285 40.9262 122.795 40.5865 123.304C40.4166 123.474 40.4166 123.644 40.2468 123.814L37.3594 121.096C37.5292 120.926 37.5292 120.757 37.6991 120.757C37.8689 120.587 37.8689 120.417 37.8689 120.417V120.247C38.0388 119.907 38.2086 119.568 38.2086 119.398C38.3785 119.228 38.3785 119.058 38.3785 118.888C38.5483 118.549 38.5483 118.209 38.5483 117.869C38.5483 117.699 38.7182 117.529 38.7182 117.36H42.9643Z" fill="#D5DAE5"/>
<path d="M161.682 69.9687C161.682 69.2893 161.512 68.6098 161.342 67.7606L152.34 76.7627C152.001 76.5929 151.491 76.423 151.151 76.423C150.812 76.423 150.302 76.5929 149.962 76.7627L141.81 68.6098C141.98 68.2701 141.98 68.1003 141.98 67.5907C141.98 66.0621 140.791 65.043 139.432 65.043C138.073 65.043 136.884 66.2319 136.884 67.5907C136.884 67.9304 136.884 68.2701 137.054 68.6098L130.09 75.2341C129.751 75.0642 129.411 75.0642 129.071 75.0642C127.543 75.0642 126.523 76.2532 126.523 77.612C126.523 78.9708 127.712 80.1597 129.071 80.1597C130.43 80.1597 131.619 78.9708 131.619 77.612C131.619 77.2723 131.449 76.9326 131.279 76.5929L137.903 69.7988C138.413 69.9687 138.583 70.1385 138.922 70.1385C139.262 70.1385 139.772 69.9687 139.941 69.7988L148.094 77.9517C147.924 78.2914 147.924 78.4612 147.924 78.8009C147.924 80.3296 149.113 81.3487 150.472 81.3487C152.001 81.3487 153.02 80.1597 153.02 78.8009C153.02 78.4612 153.02 78.2914 152.85 77.9517L161.682 69.9687ZM129.241 79.1406C128.562 79.1406 128.052 78.6311 128.052 77.9517C128.052 77.2723 128.562 76.7627 129.241 76.7627C129.92 76.7627 130.43 77.2723 130.43 77.9517C130.43 78.4612 129.92 79.1406 129.241 79.1406ZM139.432 68.7797C138.752 68.7797 138.243 68.2701 138.243 67.5907C138.243 66.9113 138.752 66.4018 139.432 66.4018C140.111 66.4018 140.621 66.9113 140.621 67.5907C140.621 68.2701 140.281 68.7797 139.432 68.7797ZM151.321 80.3296C150.642 80.3296 150.132 79.82 150.132 79.1406C150.132 78.4612 150.642 77.9517 151.321 77.9517C152.001 77.9517 152.51 78.4612 152.51 79.1406C152.68 79.82 152.17 80.3296 151.321 80.3296Z" fill="#D5DAE5"/>
<path d="M72.8483 78.1207H70.4705C70.3006 78.1207 69.9609 77.781 69.9609 77.6111V64.7024C69.9609 64.3627 70.1308 64.1929 70.4705 64.1929H72.8483C73.0182 64.1929 73.3579 64.5326 73.3579 64.7024V77.6111C73.188 77.781 73.0182 78.1207 72.8483 78.1207Z" fill="#AAB2C5"/>
<path d="M74.2135 78.123H71.4959C71.3261 78.123 71.1562 77.9531 71.1562 77.7833V71.8385C71.1562 71.4988 71.3261 71.4988 71.4959 71.4988H74.2135C74.3834 71.4988 74.5532 71.6686 74.5532 71.8385V77.7833C74.5532 77.9531 74.3834 78.123 74.2135 78.123Z" fill="#D5DAE5"/>
<path d="M78.9733 78.1204H76.5955C76.4256 78.1204 76.0859 77.7807 76.0859 77.6108V68.6087C76.0859 68.269 76.2558 68.0991 76.5955 68.0991H78.9733C79.1432 68.0991 79.4829 68.4388 79.4829 68.6087V77.6108C79.4829 77.7807 79.1432 78.1204 78.9733 78.1204Z" fill="#AAB2C5"/>
<path d="M85.0827 78.1241H82.7049C82.535 78.1241 82.1953 77.7844 82.1953 77.6146V71.8396C82.1953 71.4999 82.3652 71.3301 82.7049 71.3301H85.0827C85.2526 71.3301 85.5923 71.6698 85.5923 71.8396V77.4447C85.5923 77.7844 85.2526 78.1241 85.0827 78.1241Z" fill="#AAB2C5"/>
<path d="M91.1999 78.124H88.822C88.6522 78.124 88.3125 77.7843 88.3125 77.6145V66.9138C88.3125 66.5741 88.4823 66.4043 88.822 66.4043H91.1999C91.3698 66.4043 91.7095 66.744 91.7095 66.9138V77.6145C91.7095 77.7843 91.5396 78.124 91.1999 78.124Z" fill="#AAB2C5"/>
<path d="M97.4812 78.1221H95.1033C94.9334 78.1221 94.5938 77.7824 94.5938 77.6126V71.1582C94.5938 70.8185 94.7636 70.6487 95.1033 70.6487H97.4812C97.651 70.6487 97.9907 70.9884 97.9907 71.1582V77.6126C97.9907 77.7824 97.8208 78.1221 97.4812 78.1221Z" fill="#AAB2C5"/>
<path d="M103.591 78.1204H101.213C101.043 78.1204 100.703 77.7807 100.703 77.6108V68.6087C100.703 68.269 100.873 68.0991 101.213 68.0991H103.591C103.76 68.0991 104.1 68.4388 104.1 68.6087V77.6108C104.1 77.7807 103.93 78.1204 103.591 78.1204Z" fill="#AAB2C5"/>
<path d="M109.872 78.1241H107.494C107.324 78.1241 106.984 77.7844 106.984 77.6146V71.8396C106.984 71.4999 107.154 71.3301 107.494 71.3301H109.872C110.042 71.3301 110.381 71.6698 110.381 71.8396V77.4447C110.211 77.7844 110.042 78.1241 109.872 78.1241Z" fill="#AAB2C5"/>
<path d="M80.3229 78.121H77.4355C77.2656 78.121 77.2656 77.9512 77.2656 77.7813V74.2145C77.2656 74.0446 77.4355 73.8748 77.4355 73.8748H80.3229C80.4927 73.8748 80.4927 74.0446 80.4927 74.2145V77.7813C80.6626 77.9512 80.4927 78.121 80.3229 78.121Z" fill="#D5DAE5"/>
<path d="M86.6041 78.1208H83.7167C83.5469 78.1208 83.5469 77.951 83.5469 77.7811V76.0826C83.5469 75.9128 83.7167 75.7429 83.7167 75.7429H86.6041C86.774 75.7429 86.774 75.9128 86.774 76.0826V77.7811C86.774 77.951 86.774 78.1208 86.6041 78.1208Z" fill="#D5DAE5"/>
<path d="M92.7213 78.1205H89.8339C89.6641 78.1205 89.6641 77.9506 89.6641 77.7808V75.233C89.6641 75.0632 89.8339 74.8933 89.8339 74.8933H92.7213C92.8912 74.8933 92.8912 75.0632 92.8912 75.233V77.7808C93.061 77.9506 93.061 78.1205 92.7213 78.1205Z" fill="#D5DAE5"/>
<path d="M99.0124 78.1216H96.2949C96.125 78.1216 96.125 77.9517 96.125 77.7819V73.1959C96.125 73.0261 96.2949 72.8562 96.2949 72.8562H99.0124C99.1823 72.8562 99.1823 73.0261 99.1823 73.1959V77.7819C99.3521 77.9517 99.1823 78.1216 99.0124 78.1216Z" fill="#D5DAE5"/>
<path d="M105.461 78.1196H102.404C102.234 78.1196 102.234 78.1196 102.234 77.9498V77.1005C102.234 76.9307 102.234 76.9307 102.404 76.9307H105.461C105.631 76.9307 105.631 76.9307 105.631 77.1005V77.7799C105.631 77.9498 105.631 78.1196 105.461 78.1196Z" fill="#D5DAE5"/>
<path d="M111.579 78.122H108.521C108.521 78.122 108.352 78.122 108.352 77.9522V77.6125C108.352 77.6125 108.352 77.4426 108.521 77.4426H111.579C111.579 77.4426 111.749 77.4426 111.749 77.6125L111.579 78.122C111.749 77.9522 111.579 78.122 111.579 78.122Z" fill="#D5DAE5"/>
<path d="M114.298 100.202H67.25V106.487H114.298V100.202Z" fill="#F1F3FA"/>
<path d="M94.5881 102.239H81.6797V104.107H94.5881V102.239Z" fill="#D5DAE5"/>
<path d="M110.898 102.239H106.312V104.107H110.898V102.239Z" fill="#D5DAE5"/>
<path d="M114.298 112.091H67.25V118.375H114.298V112.091Z" fill="#F1F3FA"/>
<path d="M90.6816 114.303H81.6797V116.171H90.6816V114.303Z" fill="#D5DAE5"/>
<path d="M110.897 114.303H102.914V116.171H110.897V114.303Z" fill="#D5DAE5"/>
<path d="M114.298 124.153H67.25V130.437H114.298V124.153Z" fill="#F1F3FA"/>
<path d="M96.6263 126.36H81.6797V128.229H96.6263V126.36Z" fill="#D5DAE5"/>
<path d="M110.899 126.36H108.352V128.229H110.899V126.36Z" fill="#D5DAE5"/>
<path d="M16.4672 34.6379H9.33361C8.82407 34.6379 8.48438 34.1283 8.48438 33.7886V32.9393C8.48438 32.4298 8.99392 32.0901 9.33361 32.0901H16.4672C16.9768 32.0901 17.3164 32.5996 17.3164 32.9393V33.7886C17.3164 34.1283 16.9768 34.6379 16.4672 34.6379Z" fill="#D5DAE5"/>
<path d="M65.5495 34.6379H23.4274C22.9178 34.6379 22.5781 34.1283 22.5781 33.7886V32.9393C22.5781 32.4298 23.0877 32.0901 23.4274 32.0901H65.5495C66.0591 32.0901 66.3988 32.5996 66.3988 32.9393V33.7886C66.3988 34.1283 66.0591 34.6379 65.5495 34.6379Z" fill="#F1F3FA"/>
<path d="M16.4672 41.6066H9.33361C8.82407 41.6066 8.48438 41.0971 8.48438 40.7574V39.9081C8.48438 39.3985 8.99392 39.0588 9.33361 39.0588H16.4672C16.9768 39.0588 17.3164 39.5684 17.3164 39.9081V40.7574C17.3164 41.2669 16.9768 41.6066 16.4672 41.6066Z" fill="#D5DAE5"/>
<path d="M46.0171 40.7574C46.0171 41.2669 45.5075 41.6066 45.1678 41.6066H23.4274C22.9178 41.6066 22.5781 41.0971 22.5781 40.7574V39.9081C22.5781 39.3985 23.0877 39.0588 23.4274 39.0588H45.1678C45.6774 39.0588 46.0171 39.5684 46.0171 39.9081V40.7574Z" fill="#F1F3FA"/>
<path d="M54.0035 86.613H8.48438V58.4177C10.8622 58.5876 13.2401 58.7574 15.4481 59.4368C16.4672 59.7765 17.1466 60.1162 17.826 60.7956C18.1657 61.1353 18.1657 61.3052 18.1657 61.4751C18.5054 62.3243 19.1848 62.8339 20.3737 63.0037L21.3928 63.1736C23.431 63.3434 24.9596 64.5324 25.1294 65.8912L25.4691 68.2691C27.6771 68.7787 27.847 68.7787 29.8852 69.2882C30.2249 69.4581 30.2249 69.2882 30.3947 69.1184C30.5646 68.9485 30.7344 68.9485 30.9042 68.9485C31.2439 68.9485 31.2439 68.9485 31.5836 68.7787C31.9233 68.6088 32.263 68.6088 32.4329 68.9485C33.2821 70.1375 34.9806 70.8169 35.9997 71.836C37.1886 73.0249 39.2268 72.8551 40.5856 72.8551C40.9252 72.8551 41.4348 73.0249 41.7745 73.1948C43.473 74.3838 46.1905 78.2903 48.3985 78.2903C49.2478 78.2903 49.9272 78.63 50.4367 78.9697C52.305 81.5175 53.494 83.8954 54.0035 86.613Z" fill="#F1F3FA"/>
<path d="M52.8146 86.9535C52.305 84.4057 51.1161 82.3675 49.2478 80.1594C49.0779 79.9896 48.5684 79.8197 48.0588 79.8197C46.0207 79.8197 44.3222 77.9514 42.6237 76.2528C41.9443 75.5734 41.2649 74.894 40.7554 74.5543C40.5855 74.3845 40.2459 74.3845 40.2459 74.3845C39.9062 74.3845 39.7363 74.3845 39.3966 74.3845C38.0378 74.3845 36.1695 74.2146 34.8107 73.0257C34.471 72.5161 33.9615 72.1764 33.2821 71.8367C32.6027 71.3272 31.9233 70.9875 31.4138 70.308C31.2439 70.308 30.9042 70.308 30.7344 70.308C30.5645 70.4779 29.8852 70.8176 29.0359 70.4779L28.0168 70.1382C26.9977 69.9683 26.4882 69.7985 24.7897 69.4588H24.2802L23.9405 66.2316C23.9405 65.3824 22.7516 64.703 21.3928 64.5331L20.3737 64.3632C18.8451 64.1934 17.4863 63.3441 17.1466 61.9853V61.8155C16.6371 61.3059 16.1275 60.9662 15.4481 60.7964C13.0703 59.9471 10.6924 59.7773 8.48438 59.7773L8.65422 57.2295C11.0321 57.3993 13.5798 57.5692 15.9577 58.4184C17.1466 58.7581 18.1657 59.4376 18.8451 60.2868C19.0149 60.4567 19.3546 60.9662 19.5245 61.6456C19.6943 61.9853 20.034 62.1552 20.5435 62.1552L21.5626 62.325C24.2802 62.4949 26.1485 64.1934 26.4882 66.2316L26.6581 67.5904C27.6771 67.7603 28.1867 67.9301 29.0359 68.1L30.055 68.2698C30.3947 68.1 30.7344 67.9301 31.0741 67.9301C31.2439 67.9301 31.2439 67.9301 31.4138 67.9301C32.263 67.5904 33.2821 67.9301 33.7916 68.6095C34.1313 68.9492 34.8107 69.4588 35.3203 69.7985C35.9997 70.308 36.6791 70.6478 37.1886 71.3272C37.6981 71.8367 38.8871 71.8367 40.076 72.0066C40.4157 72.0066 40.5855 72.0066 40.9252 72.0066C41.6046 72.0066 42.1142 72.3463 42.6237 72.5161L42.7936 72.686C43.473 73.1955 44.3222 73.8749 45.0016 74.7242C46.0207 75.9131 47.7191 77.4418 48.5684 77.4418C49.5875 77.4418 50.6065 77.7815 51.4558 78.4609C53.8336 81.0087 55.1924 83.5565 55.702 86.6138L52.8146 86.9535Z" fill="#D5DAE5"/>
<path d="M52.1331 69.4587H32.0911C31.2419 69.4587 30.5625 68.7793 30.5625 67.93V60.7962C30.5625 59.947 31.2419 59.2676 32.0911 59.2676H52.1331C52.9824 59.2676 53.6618 59.947 53.6618 60.7962V67.93C53.6618 68.7793 52.9824 69.4587 52.1331 69.4587Z" fill="#AAB2C5"/>
<path d="M49.5832 62.1543H34.8064C34.4667 62.1543 34.2969 62.494 34.2969 62.6638C34.2969 63.0036 34.6366 63.1734 34.8064 63.1734H49.5832C49.9228 63.1734 50.0927 62.8337 50.0927 62.6638C50.0927 62.494 49.753 62.1543 49.5832 62.1543Z" fill="white"/>
<path d="M42.6174 65.5549H34.6345C34.2948 65.5549 34.125 65.8946 34.125 66.0645C34.125 66.2343 34.4647 66.574 34.6345 66.574H42.6174C42.9571 66.574 43.1269 66.2343 43.1269 66.0645C43.1269 65.8946 42.7872 65.5549 42.6174 65.5549Z" fill="white"/>
<path d="M141.3 115.152H127.882V109.547H141.3V115.152ZM128.052 116.85H141.47V122.456H128.052V116.85ZM129.071 102.413H141.47V108.188H128.052V103.602C128.052 102.753 128.562 102.413 129.071 102.413ZM128.052 128.061V123.984H141.47V129.08H129.071C128.562 129.25 128.052 128.74 128.052 128.061ZM159.134 102.413C159.304 101.734 159.474 101.224 159.644 100.545H129.071C127.543 100.545 126.523 101.903 126.523 103.432V128.061C126.523 129.589 127.712 130.948 129.071 130.948H144.018C144.527 130.269 145.037 129.759 145.546 129.08H143.168V123.984H149.113C149.453 123.475 149.793 122.795 150.302 122.286H143.168V116.681H153.359C153.699 116.171 153.869 115.661 154.209 115.152H143.168V109.547H155.737V111.925C156.417 110.566 156.926 109.037 157.436 107.678H157.266V102.413H159.134ZM155.567 108.018H143.168V102.413H155.737V108.018H155.567Z" fill="#F1F3FA"/>
<path d="M133.834 19.0137C151.498 33.6209 162.708 55.7016 162.708 80.4999C162.708 105.638 151.158 128.058 132.984 142.666" stroke="#D5DAE5" stroke-miterlimit="10"/>
</svg>
